<?xml version="1.0" encoding="UTF-8"?>
<svg id="Layer_2" data-name="Layer 2" xmlns="http://www.w3.org/2000/svg" viewBox="0 0 48.47 43.69">
  <defs>
    <style>
      .cls-1 {
        stroke-width: .87px;
      }

      .cls-1, .cls-2, .cls-3, .cls-4, .cls-5, .cls-6 {
        fill: none;
      }

      .cls-1, .cls-4 {
        stroke: #818181;
      }

      .cls-7 {
        fill: #010101;
      }

      .cls-8 {
        fill: #ee3a71;
      }

      .cls-9 {
        fill: #fff;
      }

      .cls-10 {
        fill: gold;
      }

      .cls-11 {
        fill: #4577bc;
      }

      .cls-12 {
        fill: #6f54a3;
      }

      .cls-2 {
        stroke: #472b7b;
      }

      .cls-2, .cls-3, .cls-4, .cls-5, .cls-6 {
        stroke-width: 1.25px;
      }

      .cls-3 {
        stroke: #1d427f;
      }

      .cls-5 {
        stroke: #811a39;
      }

      .cls-6 {
        stroke: #806e2b;
      }
    </style>
  </defs>
  <g id="Layer_1-2" data-name="Layer 1">
    <g>
      <g>
        <path class="cls-1" d="M7.96,38.81c1.8-3.1-1.81-4.45-3.98-5.27-.26-.1-.39-.39-.29-.65,.06-.17,.21-.29,.39-.32,.88-.14,1.67,.06,2.38,.6,.1,.08,.24,.06,.31-.04l1.14-1.4c.14-.17,.11-.42-.06-.56,0,0-.02-.01-.02-.02-1.69-1.18-4.1-1.54-5.79-.34-1.19,.84-1.63,2.61-.85,3.97,.68,1.17,2.7,1.85,3.9,2.33,.26,.1,.38,.39,.28,.65-.05,.12-.15,.22-.27,.28-1.06,.43-2.09-.24-2.99-.73-.11-.06-.21-.04-.3,.06l-1.33,1.65c-.08,.1-.06,.24,.04,.32,0,0,0,0,0,0,2.13,1.63,5.89,2.14,7.44-.52" vector-effect="non-scaling-stroke"/>
        <path class="cls-1" d="M12.57,40.21c4.92,2.7,6.57-6.92,2.35-7.74-.9-.17-1.76,.01-2.59,.57-.08,.06-.2,.03-.26-.05,0-.01-.02-.03-.02-.05l-.06-.17c-.05-.15-.15-.22-.31-.22l-1.84,.09c-.13,0-.2,.08-.2,.21v10.2c0,.14,.07,.22,.22,.22h2.4c.16,0,.23-.08,.23-.23l-.07-2.72c0-.06,.04-.11,.1-.11,.02,0,.04,0,.06,.01" vector-effect="non-scaling-stroke"/>
        <path class="cls-1" d="M22.12,34.85c.12,.03,.18,.15,.15,.27-.02,.08-.08,.14-.16,.15-1.63,.43-3.79,.7-3.87,2.78-.08,2.3,2.1,3.25,4.01,2.13,.14-.08,.27-.08,.41,0,.73,.41,1.52,.51,2.38,.31,.13-.03,.2-.11,.21-.25,.1-1.73,.39-5.5-.78-6.86-1.37-1.6-4.22-1-5.83-.05-.12,.07-.16,.23-.1,.35l.78,1.49c.07,.13,.22,.17,.35,.11,.01,0,.02-.01,.03-.02,.75-.54,1.56-.68,2.41-.41" vector-effect="non-scaling-stroke"/>
        <path class="cls-1" d="M31.84,37.98c-3.07,2.3-3.12-4.94-.23-2.97,.12,.08,.21,.06,.3-.05l1.04-1.42c.14-.19,.1-.45-.09-.59-.03-.02-.06-.04-.1-.05-2.52-.98-4.4-.51-5.63,1.43-.8,1.25-.78,3.1-.1,4.37,1.2,2.23,3.92,2.5,5.97,1.22,.12-.07,.16-.22,.09-.34l-.83-1.5c-.08-.13-.24-.18-.38-.11-.01,0-.02,.01-.03,.02" vector-effect="non-scaling-stroke"/>
        <path class="cls-1" d="M39.33,38.08c-1,.54-2.04,.53-2.84-.18-.12-.11-.13-.3-.02-.42,.05-.06,.13-.09,.21-.1h3.7c.14,0,.23-.07,.26-.22,1.36-7.04-8.96-5.78-6.99,.77,.88,2.94,4.25,3.39,6.61,1.94,.13-.08,.17-.25,.1-.38l-.72-1.32c-.06-.11-.2-.15-.31-.09,0,0,0,0,0,0" vector-effect="non-scaling-stroke"/>
        <path class="cls-1" d="M44.87,34.58c.64-.05,1.22,.12,1.74,.51,.11,.08,.27,.06,.35-.05,0,0,0,0,0,0l1-1.39c.09-.12,.08-.23-.05-.32-1.2-.85-2.53-1.09-4-.74-1.8,.43-2.65,2.44-1.43,3.82,.61,.69,1.8,1.12,2.69,1.55,.14,.07,.2,.23,.14,.38-.04,.09-.12,.15-.22,.16-.72,.11-1.36-.07-1.92-.54-.2-.17-.5-.14-.67,.06,0,.01-.02,.02-.03,.04l-.89,1.3c-.08,.11-.06,.2,.05,.28,4.68,3.49,9.94-2.53,3.19-4.45-.16-.05-.25-.21-.21-.38,.03-.12,.14-.21,.27-.22" vector-effect="non-scaling-stroke"/>
        <path class="cls-1" d="M12.49,35.21v2.64c0,.22,.18,.4,.4,.4h.39c.62,0,1.13-.59,1.13-1.33h0v-.79c0-.73-.51-1.33-1.13-1.33h-.39c-.22,0-.4,.18-.4,.4h0" vector-effect="non-scaling-stroke"/>
        <path class="cls-1" d="M22.46,37.37c-.15-.24-.58-.24-.96,0,0,0,0,0,0,0-.38,.24-.57,.62-.42,.86t0,0c.15,.24,.58,.24,.96,0,0,0,0,0,0,0,.38-.24,.57-.62,.42-.86h0" vector-effect="non-scaling-stroke"/>
        <path class="cls-1" d="M36.52,35.56l1.56-.08s.08-.04,.08-.09c0,0,0,0,0,0v-.03c-.02-.41-.39-.72-.81-.7h-.17c-.43,.03-.76,.38-.73,.79,0,0,0,0,0,0v.03s.04,.08,.09,.08c0,0,0,0,0,0" vector-effect="non-scaling-stroke"/>
        <path class="cls-9" d="M7.96,38.81c1.8-3.1-1.81-4.45-3.98-5.27-.26-.1-.39-.39-.29-.65,.06-.17,.21-.29,.39-.32,.88-.14,1.67,.06,2.38,.6,.1,.08,.24,.06,.31-.04l1.14-1.4c.14-.17,.11-.42-.06-.56,0,0-.02-.01-.02-.02-1.69-1.18-4.1-1.54-5.79-.34-1.19,.84-1.63,2.61-.85,3.97,.68,1.17,2.7,1.85,3.9,2.33,.26,.1,.38,.39,.28,.65-.05,.12-.15,.22-.27,.28-1.06,.43-2.09-.24-2.99-.73-.11-.06-.21-.04-.3,.06l-1.33,1.65c-.08,.1-.06,.24,.04,.32,0,0,0,0,0,0,2.13,1.63,5.89,2.14,7.44-.52Z"/>
        <path class="cls-9" d="M31.84,37.98c-3.07,2.3-3.12-4.94-.23-2.97,.12,.08,.21,.06,.3-.05l1.04-1.42c.14-.19,.1-.45-.09-.59-.03-.02-.06-.04-.1-.05-2.52-.98-4.4-.51-5.63,1.43-.8,1.25-.78,3.1-.1,4.37,1.2,2.23,3.92,2.5,5.97,1.22,.12-.07,.16-.22,.09-.34l-.83-1.5c-.08-.13-.24-.18-.38-.11-.01,0-.02,.01-.03,.02Z"/>
        <path class="cls-9" d="M44.87,34.58c.64-.05,1.22,.12,1.74,.51,.11,.08,.27,.06,.35-.05,0,0,0,0,0,0l1-1.39c.09-.12,.08-.23-.05-.32-1.2-.85-2.53-1.09-4-.74-1.8,.43-2.65,2.44-1.43,3.82,.61,.69,1.8,1.12,2.69,1.55,.14,.07,.2,.23,.14,.38-.04,.09-.12,.15-.22,.16-.72,.11-1.36-.07-1.92-.54-.2-.17-.5-.14-.67,.06,0,.01-.02,.02-.03,.04l-.89,1.3c-.08,.11-.06,.2,.05,.28,4.68,3.49,9.94-2.53,3.19-4.45-.16-.05-.25-.21-.21-.38,.03-.12,.14-.21,.27-.22Z"/>
        <path class="cls-7" d="M3.98,33.54c2.17,.82,5.78,2.17,3.98,5.27-1.55,2.66-5.31,2.15-7.44,.52-.1-.08-.12-.22-.04-.32,0,0,0,0,0,0l1.33-1.65c.08-.1,.18-.12,.3-.06,.9,.5,1.93,1.17,2.99,.73,.26-.11,.38-.4,.27-.65-.05-.12-.15-.22-.28-.27-1.2-.48-3.22-1.16-3.9-2.33-.79-1.36-.34-3.13,.85-3.97,1.69-1.2,4.1-.84,5.79,.34,.18,.12,.22,.37,.1,.55,0,0-.01,.02-.02,.02l-1.14,1.4c-.08,.1-.22,.11-.31,.04-.7-.53-1.5-.73-2.38-.6-.28,.05-.47,.31-.42,.58,.03,.18,.15,.33,.32,.39Z"/>
        <path class="cls-7" d="M12.57,40.21s-.11-.01-.14,.04c-.01,.02-.01,.04-.01,.06l.07,2.72c0,.15-.07,.23-.23,.23h-2.4c-.14,0-.22-.07-.22-.22v-10.2c0-.13,.07-.2,.2-.21l1.84-.09c.16,0,.26,.07,.31,.22l.06,.17c.03,.1,.14,.15,.23,.12,.02,0,.03-.01,.05-.02,.83-.55,1.69-.74,2.59-.57,4.22,.82,2.57,10.45-2.35,7.74Zm-.08-5v2.64c0,.22,.18,.4,.4,.4h.39c.62,0,1.13-.59,1.13-1.33h0v-.79c0-.73-.51-1.33-1.13-1.33h-.39c-.22,0-.4,.18-.4,.4h0Z"/>
        <path class="cls-7" d="M22.12,34.85c-.86-.26-1.66-.13-2.41,.41-.11,.08-.27,.06-.36-.06,0-.01-.01-.02-.02-.03l-.78-1.49c-.07-.12-.03-.28,.1-.35,1.61-.95,4.46-1.55,5.83,.05,1.17,1.36,.88,5.13,.78,6.86,0,.14-.08,.22-.21,.25-.86,.2-1.65,.1-2.38-.31-.14-.08-.27-.08-.41,0-1.91,1.12-4.09,.17-4.01-2.13,.08-2.08,2.24-2.36,3.87-2.78,.12-.03,.19-.14,.16-.26-.02-.08-.08-.14-.15-.16Zm.33,2.51c-.15-.24-.58-.24-.96,0,0,0,0,0,0,0-.38,.24-.57,.62-.42,.86t0,0c.15,.24,.58,.24,.96,0,0,0,0,0,0,0,.38-.24,.57-.62,.42-.86h0Z"/>
        <path class="cls-7" d="M31.61,35.01c-2.89-1.97-2.83,5.26,.23,2.97,.12-.09,.3-.07,.39,.06,0,0,.01,.02,.02,.03l.83,1.5c.07,.12,.03,.27-.09,.34-2.05,1.27-4.77,1.01-5.97-1.22-.68-1.27-.7-3.11,.1-4.37,1.23-1.93,3.11-2.41,5.63-1.43,.22,.08,.32,.32,.24,.54-.01,.03-.03,.07-.05,.1l-1.04,1.42c-.08,.11-.18,.13-.3,.05Z"/>
        <path class="cls-7" d="M36.49,37.9c.8,.71,1.84,.72,2.84,.18,.11-.06,.25-.02,.31,.09,0,0,0,0,0,0l.72,1.32c.07,.13,.03,.3-.1,.38-2.35,1.46-5.72,1-6.61-1.94-1.97-6.55,8.35-7.81,6.99-.77-.03,.14-.12,.22-.26,.22h-3.7c-.16,0-.29,.14-.29,.3,0,.08,.04,.16,.1,.21Zm.03-2.34l1.56-.08s.08-.04,.08-.09c0,0,0,0,0,0v-.03c-.02-.41-.39-.72-.81-.7h-.17c-.43,.03-.76,.38-.73,.79,0,0,0,0,0,0v.03s.04,.08,.09,.08c0,0,0,0,0,0Z"/>
        <path class="cls-7" d="M44.87,34.58c-.17,.02-.29,.16-.28,.33,.01,.13,.1,.23,.22,.27,6.75,1.93,1.5,7.94-3.19,4.45-.11-.08-.12-.18-.05-.28l.89-1.3c.15-.22,.44-.27,.66-.12,.01,0,.02,.02,.04,.03,.55,.47,1.19,.65,1.92,.54,.16-.02,.26-.17,.24-.32-.01-.09-.07-.17-.16-.21-.9-.43-2.08-.86-2.69-1.55-1.22-1.37-.37-3.39,1.43-3.82,1.47-.35,2.8-.1,4,.74,.13,.09,.14,.2,.05,.32l-1,1.39c-.08,.11-.24,.13-.35,.05,0,0,0,0,0,0-.51-.39-1.09-.56-1.74-.51Z"/>
      </g>
      <g>
        <path class="cls-4" d="M24.73,2.4c-.57-1.16-1.34-1.74-2.29-1.74-3.15,0-6.18-.01-9.09,0-1.48,0-2.67,1.21-2.67,2.68V24.33c0,1.47,1.19,2.67,2.67,2.67h20.86c1.55,0,2.8-1.25,2.81-2.8,.01-2.63,.92-9.8-1.57-11.35-.18-.11-.21-.26-.09-.43,5.23-7.14-3.81-15.6-10.18-9.93-.18,.17-.33,.14-.44-.08" vector-effect="non-scaling-stroke"/>
        <path class="cls-6" d="M32.89,7.87c0-1.69-1.37-3.05-3.05-3.05h0c-1.69,0-3.05,1.37-3.05,3.05h0c0,1.69,1.37,3.05,3.05,3.05h0c1.69,0,3.05-1.37,3.05-3.05h0" vector-effect="non-scaling-stroke"/>
        <path class="cls-3" d="M20.87,5.05c0-.09-.08-.17-.17-.17h-5.78c-.09,.01-.17,.09-.17,.18v5.62c0,.09,.09,.17,.18,.17h5.78c.09-.01,.17-.09,.17-.18V5.05" vector-effect="non-scaling-stroke"/>
        <path class="cls-5" d="M20.86,16.99c0-.11-.09-.19-.19-.19h-5.72c-.11,.01-.19,.1-.19,.2v5.57c0,.11,.1,.19,.2,.19h5.72c.11-.01,.19-.1,.19-.2v-5.57" vector-effect="non-scaling-stroke"/>
        <path class="cls-2" d="M32.93,17.07c0-.15-.12-.27-.27-.27h-5.58c-.15,.01-.27,.13-.27,.28v5.42c0,.15,.13,.27,.28,.27h5.58c.15-.01,.27-.13,.27-.28v-5.42" vector-effect="non-scaling-stroke"/>
        <path class="cls-9" d="M24.73,2.4c-.57-1.16-1.34-1.74-2.29-1.74-3.15,0-6.18-.01-9.09,0-1.48,0-2.67,1.21-2.67,2.68V24.33c0,1.47,1.19,2.67,2.67,2.67h20.86c1.55,0,2.8-1.25,2.81-2.8,.01-2.63,.92-9.8-1.57-11.35-.18-.11-.21-.26-.09-.43,5.23-7.14-3.81-15.6-10.18-9.93-.18,.17-.33,.14-.44-.08Z"/>
        <path class="cls-7" d="M25.17,2.48c6.37-5.67,15.41,2.79,10.18,9.93-.13,.18-.1,.32,.09,.43,2.48,1.56,1.58,8.72,1.57,11.35,0,1.55-1.26,2.8-2.81,2.8H13.34c-1.47,0-2.67-1.19-2.67-2.67V3.34c0-1.48,1.19-2.68,2.67-2.68,2.91,0,5.94,0,9.09,0,.95,0,1.72,.59,2.29,1.74,.11,.22,.26,.25,.44,.08Zm7.73,5.38c0-1.69-1.37-3.05-3.05-3.05h0c-1.69,0-3.05,1.37-3.05,3.05h0c0,1.69,1.37,3.05,3.05,3.05h0c1.69,0,3.05-1.37,3.05-3.05h0Zm-12.03-2.81c0-.09-.08-.17-.17-.17h-5.78c-.09,.01-.17,.09-.17,.18v5.62c0,.09,.09,.17,.18,.17h5.78c.09-.01,.17-.09,.17-.18V5.05Zm-.02,11.94c0-.11-.09-.19-.19-.19h-5.72c-.11,.01-.19,.1-.19,.2v5.57c0,.11,.1,.19,.2,.19h5.72c.11-.01,.19-.1,.19-.2v-5.57Zm12.06,.08c0-.15-.12-.27-.27-.27h-5.58c-.15,.01-.27,.13-.27,.28v5.42c0,.15,.13,.27,.28,.27h5.58c.15-.01,.27-.13,.27-.28v-5.42Z"/>
        <circle class="cls-10" cx="29.84" cy="7.87" r="3.05"/>
        <rect class="cls-11" x="14.75" y="4.89" width="6.12" height="5.96" rx=".17" ry=".17" transform="translate(-.01 .03) rotate(-.1)"/>
        <rect class="cls-8" x="14.76" y="16.8" width="6.11" height="5.96" rx=".19" ry=".19" transform="translate(-.03 .03) rotate(-.1)"/>
        <rect class="cls-12" x="26.82" y="16.8" width="6.12" height="5.96" rx=".27" ry=".27" transform="translate(-.03 .05) rotate(-.1)"/>
      </g>
    </g>
  </g>
</svg>